<svg width="249" height="45" viewBox="0 0 249 45" fill="none" xmlns="http://www.w3.org/2000/svg">
<path d="M28.1786 0.566124C28.034 1.88584 27.6868 2.63997 26.2112 4.83288C24.4559 7.43263 23.9062 8.85157 23.8098 11.0147C23.7712 12.0665 23.7905 12.394 23.9641 13.1382C24.292 14.5274 24.6681 15.1525 26.298 16.9683C27.8797 18.7346 28.2751 19.32 28.6609 20.4909C28.8827 21.1656 28.9213 21.4435 28.9213 22.3266C28.9116 24.202 28.3233 25.7499 27.1563 27.0299C26.1244 28.1611 25.16 28.7168 23.7616 29.0145C20.9069 29.6198 18.0232 28.2504 16.7405 25.6904C16.1522 24.5096 16.0172 23.8944 16.0268 22.3762C16.0268 21.1061 16.0558 20.9275 16.2969 20.2428C16.808 18.8338 17.107 18.3774 18.4765 16.9187C19.9328 15.3708 20.2125 14.9044 20.2896 13.9221C20.3475 13.1183 20.1353 12.523 19.5567 11.8879C18.7755 11.0346 17.6953 10.8857 16.5766 11.5009C15.2939 12.2154 13.4808 14.1404 12.4777 15.8768C11.1372 18.1888 10.5682 20.4413 10.6936 22.9219C10.8189 25.3232 11.5423 27.4665 12.8925 29.4213C15.0431 32.5172 18.2065 34.2735 21.9195 34.4025C23.5108 34.462 24.4367 34.3529 25.8447 33.9163C27.7639 33.3308 29.2684 32.3882 30.773 30.8204C33.3383 28.1611 34.5728 24.718 34.1967 21.2549C33.917 18.6056 32.9719 16.5516 31.0237 14.3388C29.5964 12.7115 29.307 11.8978 29.606 10.4194C29.8182 9.40724 30.1075 8.84165 31.0623 7.58147C32.8658 5.1901 33.1358 4.61458 32.9429 3.56278C32.75 2.53082 32.0267 1.69731 30.7344 1.00272C30.175 0.705042 28.439 0.000530911 28.2654 0.000530911C28.2558 0.000530911 28.2172 0.258521 28.1786 0.566124Z" fill="#C5192D"/>
<path d="M13.9823 1.03304C10.0956 2.58098 6.18006 5.90508 3.70148 9.77493C1.91729 12.5632 0.711754 15.6889 0.133097 19.0526C-0.069433 20.2334 -0.0308559 24.6987 0.181318 25.8993C1.31934 32.1109 4.88773 37.6875 9.98956 41.2001C11.8991 42.5198 14.7635 43.8197 17.0202 44.3952C19.0455 44.9211 19.711 44.9906 22.4307 45.0005C24.6585 45.0005 25.1407 44.9707 26.1437 44.7822C33.4445 43.4129 39.6264 38.64 42.8284 31.9025C43.9182 29.6104 44.4775 27.7747 44.8151 25.4627C45.0465 23.8155 45.0658 21.0273 44.844 19.4396C44.3425 15.6889 42.7512 11.8289 40.668 9.24903C40.1183 8.58421 39.9833 8.50483 39.9833 8.85212C39.9736 9.19942 39.6554 9.84439 39.3371 10.152C39.1828 10.3008 38.7006 10.5687 38.2762 10.7573C37.254 11.1939 36.955 11.4221 36.7042 11.9678C36.4535 12.4838 36.4824 12.98 36.7814 13.5753C36.8778 13.7738 37.2347 14.4684 37.5626 15.1034C38.257 16.4628 38.7392 17.8619 39.0381 19.3999C39.3564 21.0273 39.3564 23.9346 39.0381 25.4032C38.4498 28.0724 37.4372 30.4042 36.0388 32.2994C35.3251 33.2619 33.6373 34.9984 32.7018 35.7228C30.9755 37.0623 29.5867 37.8264 27.6868 38.4813C25.9026 39.1064 24.861 39.2949 22.8647 39.3545C21.2927 39.4041 20.9937 39.3842 19.7303 39.156C12.4296 37.8462 6.91303 32.1605 5.79429 24.7582C5.56283 23.2301 5.63998 20.8387 5.96789 19.2313C7.07698 13.8829 9.79667 9.96346 14.4066 7.07596C14.9757 6.71874 15.7183 6.28215 16.0655 6.10354C17.2421 5.48833 17.7918 4.63498 17.8014 3.44426C17.8014 1.42995 15.9594 0.259072 13.9823 1.03304Z" fill="#C5192D"/>
<path d="M68.28 25.3205C68.28 21.4805 66.8667 19.5605 64.04 19.5605C63.4267 19.5605 62.8133 19.6405 62.2 19.8005C61.6133 19.9605 61.1333 20.1605 60.76 20.4005V31.2405C61.0533 31.2938 61.4267 31.3472 61.88 31.4005C62.3333 31.4272 62.8267 31.4405 63.36 31.4405C64.9867 31.4405 66.2133 30.8805 67.04 29.7605C67.8667 28.6405 68.28 27.1605 68.28 25.3205ZM74.36 25.4805C74.36 27.1605 74.1067 28.6805 73.6 30.0405C73.12 31.4005 72.4133 32.5605 71.48 33.5205C70.5467 34.4805 69.4 35.2272 68.04 35.7605C66.68 36.2672 65.1333 36.5205 63.4 36.5205C62.68 36.5205 61.92 36.4805 61.12 36.4005C60.3467 36.3472 59.5733 36.2672 58.8 36.1605C58.0533 36.0538 57.3333 35.9338 56.64 35.8005C55.9467 35.6405 55.3333 35.4805 54.8 35.3205V5.92049L60.76 4.96049V15.4405C61.4267 15.1472 62.12 14.9205 62.84 14.7605C63.56 14.6005 64.3333 14.5205 65.16 14.5205C66.6533 14.5205 67.9733 14.7872 69.12 15.3205C70.2667 15.8272 71.2267 16.5605 72 17.5205C72.7733 18.4805 73.36 19.6405 73.76 21.0005C74.16 22.3338 74.36 23.8272 74.36 25.4805ZM76.7406 25.6405C76.7406 23.7738 77.0206 22.1472 77.5806 20.7605C78.1673 19.3472 78.9273 18.1738 79.8606 17.2405C80.794 16.3072 81.8606 15.6005 83.0606 15.1205C84.2873 14.6405 85.5406 14.4005 86.8206 14.4005C89.8073 14.4005 92.1673 15.3205 93.9006 17.1605C95.634 18.9738 96.5006 21.6538 96.5006 25.2005C96.5006 25.5472 96.4873 25.9338 96.4606 26.3605C96.434 26.7605 96.4073 27.1205 96.3806 27.4405H82.8606C82.994 28.6672 83.5673 29.6405 84.5806 30.3605C85.594 31.0805 86.954 31.4405 88.6606 31.4405C89.754 31.4405 90.8206 31.3472 91.8606 31.1605C92.9273 30.9472 93.794 30.6938 94.4606 30.4005L95.2606 35.2405C94.9406 35.4005 94.514 35.5605 93.9806 35.7205C93.4473 35.8805 92.8473 36.0138 92.1806 36.1205C91.5406 36.2538 90.8473 36.3605 90.1006 36.4405C89.354 36.5205 88.6073 36.5605 87.8606 36.5605C85.9673 36.5605 84.314 36.2805 82.9006 35.7205C81.514 35.1605 80.354 34.4005 79.4206 33.4405C78.514 32.4538 77.834 31.2938 77.3806 29.9605C76.954 28.6272 76.7406 27.1872 76.7406 25.6405ZM90.7406 23.3605C90.714 22.8538 90.6206 22.3605 90.4606 21.8805C90.3273 21.4005 90.1006 20.9738 89.7806 20.6005C89.4873 20.2272 89.1006 19.9205 88.6206 19.6805C88.1673 19.4405 87.594 19.3205 86.9006 19.3205C86.234 19.3205 85.6606 19.4405 85.1806 19.6805C84.7006 19.8938 84.3006 20.1872 83.9806 20.5605C83.6606 20.9338 83.4073 21.3738 83.2206 21.8805C83.0606 22.3605 82.9406 22.8538 82.8606 23.3605H90.7406ZM107.94 31.8405C108.527 31.8405 109.087 31.8272 109.62 31.8005C110.153 31.7738 110.58 31.7338 110.9 31.6805V27.1605C110.66 27.1072 110.3 27.0538 109.82 27.0005C109.34 26.9472 108.9 26.9205 108.5 26.9205C107.94 26.9205 107.407 26.9605 106.9 27.0405C106.42 27.0938 105.993 27.2138 105.62 27.4005C105.247 27.5872 104.953 27.8405 104.74 28.1605C104.527 28.4805 104.42 28.8805 104.42 29.3605C104.42 30.2938 104.727 30.9472 105.34 31.3205C105.98 31.6672 106.847 31.8405 107.94 31.8405ZM107.46 14.4005C109.22 14.4005 110.687 14.6005 111.86 15.0005C113.033 15.4005 113.967 15.9738 114.66 16.7205C115.38 17.4672 115.887 18.3738 116.18 19.4405C116.473 20.5072 116.62 21.6938 116.62 23.0005V35.4005C115.767 35.5872 114.58 35.8005 113.06 36.0405C111.54 36.3072 109.7 36.4405 107.54 36.4405C106.18 36.4405 104.94 36.3205 103.82 36.0805C102.727 35.8405 101.78 35.4538 100.98 34.9205C100.18 34.3605 99.5667 33.6405 99.14 32.7605C98.7133 31.8805 98.5 30.8005 98.5 29.5205C98.5 28.2938 98.74 27.2538 99.22 26.4005C99.7267 25.5472 100.393 24.8672 101.22 24.3605C102.047 23.8538 102.993 23.4938 104.06 23.2805C105.127 23.0405 106.233 22.9205 107.38 22.9205C108.153 22.9205 108.833 22.9605 109.42 23.0405C110.033 23.0938 110.527 23.1738 110.9 23.2805V22.7205C110.9 21.7072 110.593 20.8938 109.98 20.2805C109.367 19.6672 108.3 19.3605 106.78 19.3605C105.767 19.3605 104.767 19.4405 103.78 19.6005C102.793 19.7338 101.94 19.9338 101.22 20.2005L100.46 15.4005C100.807 15.2938 101.233 15.1872 101.74 15.0805C102.273 14.9472 102.847 14.8405 103.46 14.7605C104.073 14.6538 104.713 14.5738 105.38 14.5205C106.073 14.4405 106.767 14.4005 107.46 14.4005ZM132.369 24.8405C132.369 22.9205 132.116 21.5605 131.609 20.7605C131.129 19.9605 130.289 19.5605 129.089 19.5605C128.716 19.5605 128.329 19.5872 127.929 19.6405C127.529 19.6672 127.143 19.7072 126.769 19.7605V36.0005H120.809V15.6805C121.316 15.5472 121.903 15.4138 122.569 15.2805C123.263 15.1205 123.983 14.9872 124.729 14.8805C125.503 14.7472 126.289 14.6538 127.089 14.6005C127.889 14.5205 128.676 14.4805 129.449 14.4805C130.969 14.4805 132.196 14.6805 133.129 15.0805C134.089 15.4538 134.876 15.9072 135.489 16.4405C136.343 15.8272 137.316 15.3472 138.409 15.0005C139.529 14.6538 140.556 14.4805 141.489 14.4805C143.169 14.4805 144.543 14.7205 145.609 15.2005C146.703 15.6538 147.569 16.3072 148.209 17.1605C148.849 18.0138 149.289 19.0272 149.529 20.2005C149.769 21.3738 149.889 22.6805 149.889 24.1205V36.0005H143.929V24.8405C143.929 22.9205 143.676 21.5605 143.169 20.7605C142.689 19.9605 141.849 19.5605 140.649 19.5605C140.329 19.5605 139.876 19.6405 139.289 19.8005C138.729 19.9605 138.263 20.1605 137.889 20.4005C138.076 21.0138 138.196 21.6672 138.249 22.3605C138.303 23.0272 138.329 23.7472 138.329 24.5205V36.0005H132.369V24.8405ZM154.102 15.6805C155.115 15.3872 156.422 15.1205 158.022 14.8805C159.622 14.6138 161.302 14.4805 163.062 14.4805C164.848 14.4805 166.328 14.7205 167.502 15.2005C168.702 15.6538 169.648 16.3072 170.342 17.1605C171.035 18.0138 171.528 19.0272 171.822 20.2005C172.115 21.3738 172.262 22.6805 172.262 24.1205V36.0005H166.302V24.8405C166.302 22.9205 166.048 21.5605 165.542 20.7605C165.035 19.9605 164.088 19.5605 162.702 19.5605C162.275 19.5605 161.822 19.5872 161.342 19.6405C160.862 19.6672 160.435 19.7072 160.062 19.7605V36.0005H154.102V15.6805ZM196.136 25.4405C196.136 27.0938 195.896 28.6138 195.416 30.0005C194.936 31.3605 194.243 32.5338 193.336 33.5205C192.43 34.4805 191.336 35.2272 190.056 35.7605C188.803 36.2938 187.39 36.5605 185.816 36.5605C184.27 36.5605 182.856 36.2938 181.576 35.7605C180.323 35.2272 179.243 34.4805 178.336 33.5205C177.43 32.5338 176.723 31.3605 176.216 30.0005C175.71 28.6138 175.456 27.0938 175.456 25.4405C175.456 23.7872 175.71 22.2805 176.216 20.9205C176.75 19.5605 177.47 18.4005 178.376 17.4405C179.31 16.4805 180.403 15.7338 181.656 15.2005C182.936 14.6672 184.323 14.4005 185.816 14.4005C187.336 14.4005 188.723 14.6672 189.976 15.2005C191.256 15.7338 192.35 16.4805 193.256 17.4405C194.163 18.4005 194.87 19.5605 195.376 20.9205C195.883 22.2805 196.136 23.7872 196.136 25.4405ZM190.056 25.4405C190.056 23.6005 189.683 22.1605 188.936 21.1205C188.216 20.0538 187.176 19.5205 185.816 19.5205C184.456 19.5205 183.403 20.0538 182.656 21.1205C181.91 22.1605 181.536 23.6005 181.536 25.4405C181.536 27.2805 181.91 28.7472 182.656 29.8405C183.403 30.9072 184.456 31.4405 185.816 31.4405C187.176 31.4405 188.216 30.9072 188.936 29.8405C189.683 28.7472 190.056 27.2805 190.056 25.4405ZM204.726 36.0005C203.366 33.3338 201.98 30.2138 200.566 26.6405C199.18 23.0672 197.86 19.1738 196.606 14.9605H202.926C203.193 16.0005 203.5 17.1338 203.846 18.3605C204.22 19.5605 204.593 20.7872 204.966 22.0405C205.366 23.2672 205.753 24.4672 206.126 25.6405C206.526 26.8138 206.913 27.8805 207.286 28.8405C207.633 27.8805 208.006 26.8138 208.406 25.6405C208.806 24.4672 209.193 23.2672 209.566 22.0405C209.966 20.7872 210.34 19.5605 210.686 18.3605C211.06 17.1338 211.38 16.0005 211.646 14.9605H217.806C216.553 19.1738 215.22 23.0672 213.806 26.6405C212.42 30.2138 211.046 33.3338 209.686 36.0005H204.726ZM227.448 31.8405C228.034 31.8405 228.594 31.8272 229.128 31.8005C229.661 31.7738 230.088 31.7338 230.408 31.6805V27.1605C230.168 27.1072 229.808 27.0538 229.328 27.0005C228.848 26.9472 228.408 26.9205 228.008 26.9205C227.448 26.9205 226.914 26.9605 226.408 27.0405C225.928 27.0938 225.501 27.2138 225.128 27.4005C224.754 27.5872 224.461 27.8405 224.248 28.1605C224.034 28.4805 223.928 28.8805 223.928 29.3605C223.928 30.2938 224.234 30.9472 224.848 31.3205C225.488 31.6672 226.354 31.8405 227.448 31.8405ZM226.968 14.4005C228.728 14.4005 230.194 14.6005 231.368 15.0005C232.541 15.4005 233.474 15.9738 234.168 16.7205C234.888 17.4672 235.394 18.3738 235.688 19.4405C235.981 20.5072 236.128 21.6938 236.128 23.0005V35.4005C235.274 35.5872 234.088 35.8005 232.568 36.0405C231.048 36.3072 229.208 36.4405 227.048 36.4405C225.688 36.4405 224.448 36.3205 223.328 36.0805C222.234 35.8405 221.288 35.4538 220.488 34.9205C219.688 34.3605 219.074 33.6405 218.648 32.7605C218.221 31.8805 218.008 30.8005 218.008 29.5205C218.008 28.2938 218.248 27.2538 218.728 26.4005C219.234 25.5472 219.901 24.8672 220.728 24.3605C221.554 23.8538 222.501 23.4938 223.568 23.2805C224.634 23.0405 225.741 22.9205 226.888 22.9205C227.661 22.9205 228.341 22.9605 228.928 23.0405C229.541 23.0938 230.034 23.1738 230.408 23.2805V22.7205C230.408 21.7072 230.101 20.8938 229.488 20.2805C228.874 19.6672 227.808 19.3605 226.288 19.3605C225.274 19.3605 224.274 19.4405 223.288 19.6005C222.301 19.7338 221.448 19.9338 220.728 20.2005L219.968 15.4005C220.314 15.2938 220.741 15.1872 221.248 15.0805C221.781 14.9472 222.354 14.8405 222.968 14.7605C223.581 14.6538 224.221 14.5738 224.888 14.5205C225.581 14.4405 226.274 14.4005 226.968 14.4005Z" fill="#C5192D"/>
</svg>
