<svg width="45" height="45" viewBox="0 0 45 45" fill="none" xmlns="http://www.w3.org/2000/svg">
<path d="M28.1786 0.566124C28.034 1.88584 27.6868 2.63997 26.2112 4.83288C24.4559 7.43263 23.9062 8.85157 23.8098 11.0147C23.7712 12.0665 23.7905 12.394 23.9641 13.1382C24.292 14.5274 24.6681 15.1525 26.298 16.9683C27.8797 18.7346 28.2751 19.32 28.6609 20.4909C28.8827 21.1656 28.9213 21.4435 28.9213 22.3266C28.9116 24.202 28.3233 25.7499 27.1563 27.0299C26.1244 28.1611 25.16 28.7168 23.7616 29.0145C20.9069 29.6198 18.0232 28.2504 16.7405 25.6904C16.1522 24.5096 16.0172 23.8944 16.0268 22.3762C16.0268 21.1061 16.0558 20.9275 16.2969 20.2428C16.808 18.8338 17.107 18.3774 18.4765 16.9187C19.9328 15.3708 20.2125 14.9044 20.2896 13.9221C20.3475 13.1183 20.1353 12.523 19.5567 11.8879C18.7755 11.0346 17.6953 10.8857 16.5766 11.5009C15.2939 12.2154 13.4808 14.1404 12.4777 15.8768C11.1372 18.1888 10.5682 20.4413 10.6936 22.9219C10.8189 25.3232 11.5423 27.4665 12.8925 29.4213C15.0431 32.5172 18.2065 34.2735 21.9195 34.4025C23.5108 34.462 24.4367 34.3529 25.8447 33.9163C27.7639 33.3308 29.2684 32.3882 30.773 30.8204C33.3383 28.1611 34.5728 24.718 34.1967 21.2549C33.917 18.6056 32.9719 16.5516 31.0237 14.3388C29.5964 12.7115 29.307 11.8978 29.606 10.4194C29.8182 9.40724 30.1075 8.84165 31.0623 7.58147C32.8658 5.1901 33.1358 4.61458 32.9429 3.56278C32.75 2.53082 32.0267 1.69731 30.7344 1.00272C30.175 0.705042 28.439 0.000530911 28.2654 0.000530911C28.2558 0.000530911 28.2172 0.258521 28.1786 0.566124Z" fill="#C5192D"/>
<path d="M13.9823 1.03304C10.0956 2.58098 6.18006 5.90508 3.70148 9.77493C1.91729 12.5632 0.711754 15.6889 0.133097 19.0526C-0.069433 20.2334 -0.0308559 24.6987 0.181318 25.8993C1.31934 32.1109 4.88773 37.6875 9.98956 41.2001C11.8991 42.5198 14.7635 43.8197 17.0202 44.3952C19.0455 44.9211 19.711 44.9906 22.4307 45.0005C24.6585 45.0005 25.1407 44.9707 26.1437 44.7822C33.4445 43.4129 39.6264 38.64 42.8284 31.9025C43.9182 29.6104 44.4775 27.7747 44.8151 25.4627C45.0465 23.8155 45.0658 21.0273 44.844 19.4396C44.3425 15.6889 42.7512 11.8289 40.668 9.24903C40.1183 8.58421 39.9833 8.50483 39.9833 8.85212C39.9736 9.19942 39.6554 9.84439 39.3371 10.152C39.1828 10.3008 38.7006 10.5687 38.2762 10.7573C37.254 11.1939 36.955 11.4221 36.7042 11.9678C36.4535 12.4838 36.4824 12.98 36.7814 13.5753C36.8778 13.7738 37.2347 14.4684 37.5626 15.1034C38.257 16.4628 38.7392 17.8619 39.0381 19.3999C39.3564 21.0273 39.3564 23.9346 39.0381 25.4032C38.4498 28.0724 37.4372 30.4042 36.0388 32.2994C35.3251 33.2619 33.6373 34.9984 32.7018 35.7228C30.9755 37.0623 29.5867 37.8264 27.6868 38.4813C25.9026 39.1064 24.861 39.2949 22.8647 39.3545C21.2927 39.4041 20.9937 39.3842 19.7303 39.156C12.4296 37.8462 6.91303 32.1605 5.79429 24.7582C5.56283 23.2301 5.63998 20.8387 5.96789 19.2313C7.07698 13.8829 9.79667 9.96346 14.4066 7.07596C14.9757 6.71874 15.7183 6.28215 16.0655 6.10354C17.2421 5.48833 17.7918 4.63498 17.8014 3.44426C17.8014 1.42995 15.9594 0.259072 13.9823 1.03304Z" fill="#C5192D"/>
</svg>
